<?xml version="1.0" standalone="no"?>
<!DOCTYPE svg PUBLIC "-//W3C//DTD SVG 20010904//EN"
 "http://www.w3.org/TR/2001/REC-SVG-20010904/DTD/svg10.dtd">
<svg version="1.0" xmlns="http://www.w3.org/2000/svg"
 width="256.000000pt" height="256.000000pt" viewBox="0 0 256.000000 256.000000"
 preserveAspectRatio="xMidYMid meet">
<metadata>
Created by potrace 1.11, written by Peter Selinger 2001-2013
</metadata>
<g transform="translate(0.000000,256.000000) scale(0.100000,-0.100000)"
fill="#000000" stroke="none">
<path d="M717 2534 c-1 -1 -24 -4 -52 -8 -154 -18 -334 -112 -445 -232 -139
-149 -212 -331 -213 -529 0 -162 43 -304 134 -438 l39 -57 -42 -63 c-50 -74
-92 -170 -114 -263 -14 -58 -17 -138 -18 -489 -1 -231 0 -427 2 -436 3 -15 33
-17 283 -17 l279 0 0 408 c0 434 1 440 50 503 12 15 44 39 70 52 l49 25 902 0
c496 0 905 2 907 5 7 7 8 535 1 546 -3 5 -390 9 -910 9 -876 1 -905 2 -943 21
-54 26 -81 53 -105 105 -37 78 -22 171 37 230 73 73 -4 68 1010 68 l912 1 1
22 c0 13 1 133 1 268 0 135 -1 251 -1 258 -1 9 -190 12 -917 12 -504 0 -916
-1 -917 -1z"/>
<path d="M1004 555 c-5 -5 -9 -131 -9 -278 0 -260 1 -268 20 -272 28 -6 884 1
915 8 14 2 40 8 58 11 157 30 358 169 461 320 39 56 89 162 93 195 l3 25 -766
0 c-499 1 -769 -2 -775 -9z"/>
</g>
</svg>
